# Blender v2.80 (sub 74) OBJ File: 'FusionReactors.blend'
# www.blender.org
mtllib ReactorCellPassive.mtl
o Cube.005_Cube.002
v -0.325000 -0.500000 0.500000
v -0.501315 -0.322517 0.501315
v -0.325000 1.500000 0.500000
v -0.500000 1.500000 0.325000
v -0.501315 1.322517 0.501315
v -0.501315 -0.322517 -0.501315
v -0.325000 -0.500000 -0.500000
v -0.325000 1.500000 -0.500000
v -0.501315 1.322517 -0.501315
v -0.500000 1.500000 -0.325000
v 0.501315 -0.322517 0.501315
v 0.501315 1.322517 0.501315
v 0.500000 1.500000 0.325000
v 0.501315 -0.322517 -0.501315
v 0.500000 -0.500000 -0.325000
v 0.500000 1.500000 -0.325000
v 0.501315 1.322517 -0.501315
v -0.498573 -0.226945 0.323573
v -0.500000 -0.345000 0.224250
v -0.500000 1.345000 0.224250
v -0.498573 1.226945 0.323573
v -0.500000 -0.345000 -0.224250
v -0.498573 -0.226945 -0.323573
v -0.498573 1.226945 -0.323573
v -0.500000 1.345000 -0.224250
v -0.323573 -0.226945 -0.498573
v -0.224250 -0.345000 -0.500000
v -0.224250 1.345000 -0.500000
v -0.323573 1.226945 -0.498573
v 0.224250 -0.345000 -0.500000
v 0.323573 -0.226945 -0.498573
v 0.323573 1.226945 -0.498573
v 0.224250 1.345000 -0.500000
v -0.224250 -0.345000 0.500000
v -0.323573 -0.226945 0.498573
v -0.323573 1.226945 0.498573
v -0.224250 1.345000 0.500000
v 0.323573 -0.226945 0.498573
v 0.224250 -0.345000 0.500000
v 0.224250 1.345000 0.500000
v 0.323573 1.226945 0.498573
v 0.500000 -0.345000 0.224250
v 0.498573 -0.226945 0.323573
v 0.498573 1.226945 0.323573
v 0.500000 1.345000 0.224250
v 0.498573 -0.226945 -0.323573
v 0.500000 -0.345000 -0.224250
v 0.500000 1.345000 -0.224250
v 0.498573 1.226945 -0.323573
v -0.132023 1.500000 -0.132022
v 0.000000 1.600000 0.000001
v 0.132023 1.500000 0.132023
v 0.132023 1.500000 -0.132022
v -0.132023 1.500000 0.132023
v -0.167918 1.260500 0.416000
v -0.235143 1.150371 0.416270
v -0.235143 -0.150371 0.416270
v -0.167918 -0.260500 0.416000
v 0.167918 1.260500 -0.416000
v 0.235143 1.150371 -0.416270
v 0.235143 -0.150371 -0.416270
v 0.167918 -0.260500 -0.416000
v -0.235143 1.150371 -0.416270
v -0.167918 1.260500 -0.416000
v -0.167918 -0.260500 -0.416000
v -0.235143 -0.150371 -0.416270
v -0.416000 1.260500 -0.167918
v -0.416270 1.150371 -0.235143
v -0.416270 -0.150371 -0.235143
v -0.416000 -0.260500 -0.167918
v -0.416270 1.150371 0.235143
v -0.416000 1.260500 0.167918
v -0.416000 -0.260500 0.167918
v -0.416270 -0.150371 0.235143
v 0.132022 -0.500000 -0.132022
v -0.000001 -0.600000 0.000001
v -0.132023 -0.500000 0.132023
v -0.132023 -0.500000 -0.132022
v 0.132022 -0.500000 0.132023
v 0.235143 -0.150371 0.416270
v 0.167918 -0.260500 0.416000
v 0.167918 1.260500 0.416000
v 0.235143 1.150371 0.416270
v 0.416000 -0.260500 0.167918
v 0.416270 -0.150371 0.235143
v 0.416270 1.150371 0.235143
v 0.416000 1.260500 0.167918
v 0.416270 -0.150371 -0.235143
v 0.416000 -0.260500 -0.167918
v 0.416000 1.260500 -0.167918
v 0.416270 1.150371 -0.235143
v -0.462819 -0.345625 0.462819
v -0.462819 1.345625 0.462819
v -0.462819 -0.345625 -0.462819
v -0.462819 1.345625 -0.462819
v 0.462819 -0.345625 0.462819
v 0.462819 1.345625 0.462819
v 0.462819 -0.345625 -0.462819
v 0.462819 1.345625 -0.462819
v -0.462643 -0.242356 0.322516
v -0.462643 1.242356 0.322516
v -0.462643 -0.242356 -0.322516
v -0.462643 1.242356 -0.322516
v -0.322516 -0.242356 -0.462643
v -0.322516 1.242356 -0.462643
v 0.322516 -0.242356 -0.462643
v 0.322516 1.242356 -0.462643
v -0.322516 -0.242356 0.462643
v -0.322516 1.242356 0.462643
v 0.322516 -0.242356 0.462643
v 0.322516 1.242356 0.462643
v 0.462643 -0.242356 0.322516
v 0.462643 1.242356 0.322516
v 0.462643 -0.242356 -0.322516
v 0.462643 1.242356 -0.322516
v -0.260136 1.168121 0.372238
v -0.260136 -0.168121 0.372238
v 0.260136 1.168121 -0.372238
v 0.260136 -0.168121 -0.372238
v -0.260136 1.168121 -0.372238
v -0.260136 -0.168121 -0.372238
v -0.372238 1.168121 -0.260136
v -0.372238 -0.168121 -0.260136
v -0.372238 1.168121 0.260136
v -0.372238 -0.168121 0.260136
v 0.260136 -0.168121 0.372238
v 0.260136 1.168121 0.372238
v 0.372238 -0.168121 0.260136
v 0.372238 1.168121 0.260136
v 0.372238 -0.168121 -0.260136
v 0.372238 1.168121 -0.260136
v -0.500000 -0.500000 0.325000
v -0.500000 -0.500000 -0.325000
v 0.500000 -0.500000 0.325000
v 0.325000 -0.500000 0.500000
v 0.325000 -0.500000 -0.500000
v -0.300000 -0.500000 0.195000
v -0.195000 -0.500000 0.300000
v -0.195000 -0.500000 -0.300000
v -0.300000 -0.500000 -0.195000
v 0.195000 -0.500000 0.300000
v 0.300000 -0.500000 0.195000
v 0.300000 -0.500000 -0.195000
v 0.195000 -0.500000 -0.300000
v -0.235702 -0.530000 0.000000
v 0.000000 -0.530000 0.235702
v 0.000000 -0.530000 -0.235703
v 0.000000 -0.500000 -0.164992
v 0.106066 -0.500000 -0.271058
v -0.106066 -0.500000 -0.271058
v -0.106066 -0.500000 0.271058
v 0.000000 -0.500000 0.164991
v 0.106066 -0.500000 0.271057
v -0.271057 -0.500000 0.106066
v -0.164991 -0.500000 0.000000
v -0.271058 -0.500000 -0.106066
v 0.164992 -0.500000 -0.000000
v 0.271058 -0.500000 0.106066
v 0.271058 -0.500000 -0.106066
v 0.235703 -0.530000 -0.000000
v 0.325000 1.500000 0.500000
v 0.325000 1.500000 -0.500000
v -0.195000 1.500000 0.300000
v -0.300000 1.500000 0.195000
v -0.300000 1.500000 -0.195000
v -0.195000 1.500000 -0.300000
v 0.300000 1.500000 0.195000
v 0.195000 1.500000 0.300000
v 0.195000 1.500000 -0.300000
v 0.300000 1.500000 -0.195000
v -0.235702 1.530000 0.000000
v 0.000000 1.530000 -0.235702
v 0.000000 1.530000 0.235703
v 0.000000 1.500000 0.164992
v 0.106066 1.500000 0.271058
v -0.106066 1.500000 0.271058
v -0.106066 1.500000 -0.271057
v 0.000000 1.500000 -0.164991
v 0.106066 1.500000 -0.271057
v -0.271057 1.500000 -0.106066
v -0.164991 1.500000 0.000000
v -0.271057 1.500000 0.106066
v 0.164992 1.500000 0.000000
v 0.271058 1.500000 -0.106066
v 0.271058 1.500000 0.106066
v 0.235703 1.530000 0.000000
v -0.500000 1.145000 0.000000
v 0.500000 1.145000 0.000000
v 0.416000 1.060500 0.000000
v -0.416000 1.060500 0.000000
v -0.500000 -0.145000 0.000000
v 0.500000 -0.145000 0.000000
v 0.416000 -0.060500 0.000000
v -0.416000 -0.060500 0.000000
v 0.000000 -0.145000 -0.500000
v 0.000000 -0.145000 0.500000
v 0.000000 -0.060500 0.416000
v 0.000000 -0.060500 -0.416000
v 0.000000 1.145000 -0.500000
v 0.000000 1.145000 0.500000
v 0.000000 1.060500 0.416000
v 0.000000 1.060500 -0.416000
vt 0.396250 0.975000
vt 0.103750 0.975000
vt 0.149088 0.905250
vt 0.350913 0.905250
vt 0.396250 0.975000
vt 0.475592 0.895133
vt 0.395608 0.852125
vt 0.350912 0.905250
vt 0.396250 0.525000
vt 0.103750 0.525000
vt 0.149087 0.594750
vt 0.350912 0.594750
vt 0.103750 0.525000
vt 0.024408 0.524408
vt 0.025000 0.603750
vt 0.103750 0.525000
vt 0.025000 0.603750
vt 0.024408 0.524408
vt 0.025000 0.896250
vt 0.024408 0.975592
vt 0.103750 0.975000
vt 0.103750 0.975000
vt 0.024408 0.975592
vt 0.025000 0.896250
vt 0.475000 0.603750
vt 0.475592 0.524408
vt 0.396250 0.525000
vt 0.396250 0.525000
vt 0.475592 0.524408
vt 0.475000 0.603750
vt 0.396250 0.975000
vt 0.475592 0.975592
vt 0.475000 0.896250
vt 0.475000 0.896250
vt 0.475592 0.975592
vt 0.396250 0.975000
vt 0.350913 0.594750
vt 0.395608 0.647875
vt 0.355814 0.682333
vt 0.325563 0.632775
vt 0.103750 0.975000
vt 0.149087 0.905250
vt 0.475592 0.604867
vt 0.396250 0.525000
vt 0.350912 0.594750
vt 0.395608 0.647875
vt 0.024408 0.895133
vt 0.104392 0.852125
vt 0.103750 0.525000
vt 0.149087 0.594750
vt 0.024408 0.604867
vt 0.104392 0.647875
vt 0.350912 0.905250
vt 0.149087 0.905250
vt 0.475592 0.895133
vt 0.395608 0.852125
vt 0.024408 0.895133
vt 0.104392 0.852125
vt 0.024408 0.604867
vt 0.104392 0.647875
vt 0.475592 0.604867
vt 0.395608 0.647875
vt 0.062800 0.632775
vt 0.025000 0.594750
vt 0.025000 0.684750
vt 0.062800 0.722775
vt 0.149088 0.594750
vt 0.475592 0.895133
vt 0.396250 0.975000
vt 0.350913 0.905250
vt 0.395608 0.852125
vt 0.103750 0.975000
vt 0.104392 0.852125
vt 0.149088 0.905250
vt 0.475592 0.604867
vt 0.104392 0.647875
vt 0.144186 0.817667
vt 0.174437 0.867225
vt 0.395608 0.852125
vt 0.396250 0.525000
vt 0.395608 0.647875
vt 0.350913 0.594750
vt 0.024408 0.895133
vt 0.104392 0.852125
vt 0.103750 0.525000
vt 0.149088 0.594750
vt 0.024408 0.604867
vt 0.104392 0.647875
vt 0.012548 0.012547
vt 0.487453 0.012547
vt 0.250000 0.249998
vt 0.012547 0.487450
vt 0.487453 0.487450
vt 0.250000 0.684750
vt 0.325563 0.867225
vt 0.355814 0.817667
vt 0.355814 0.682333
vt 0.325563 0.632775
vt 0.475000 0.594750
vt 0.437200 0.632775
vt 0.437200 0.722775
vt 0.475000 0.684750
vt 0.144186 0.817667
vt 0.174437 0.867225
vt 0.475000 0.905250
vt 0.437200 0.867225
vt 0.437200 0.777225
vt 0.475000 0.815250
vt 0.325563 0.867225
vt 0.355814 0.817667
vt 0.174437 0.632775
vt 0.144186 0.682333
vt 0.812132 0.023456
vt 0.834341 0.024762
vt 0.975379 0.165800
vt 0.976685 0.188008
vt 0.937868 0.226826
vt 0.915659 0.225520
vt 0.774621 0.084481
vt 0.773315 0.062273
vt 0.812132 0.023456
vt 0.834341 0.024762
vt 0.975379 0.165800
vt 0.976685 0.188008
vt 0.937868 0.226826
vt 0.915659 0.225520
vt 0.774621 0.084481
vt 0.773315 0.062273
vt 0.773315 0.062273
vt 0.774621 0.084481
vt 0.915659 0.225520
vt 0.937868 0.226826
vt 0.976685 0.188008
vt 0.975379 0.165800
vt 0.834341 0.024762
vt 0.812132 0.023456
vt 0.773315 0.062273
vt 0.774621 0.084481
vt 0.915659 0.225520
vt 0.937868 0.226826
vt 0.976685 0.188008
vt 0.975379 0.165800
vt 0.834341 0.024762
vt 0.812132 0.023456
vt 0.012548 0.012547
vt 0.487453 0.012547
vt 0.250000 0.249998
vt 0.012547 0.487450
vt 0.487453 0.487450
vt 0.250000 0.815250
vt 0.144186 0.682333
vt 0.174437 0.632775
vt 0.025000 0.905250
vt 0.062800 0.867225
vt 0.062800 0.777225
vt 0.025000 0.815250
vt 0.174437 0.867225
vt 0.144186 0.817667
vt 0.325563 0.632775
vt 0.355814 0.682333
vt 0.144186 0.682333
vt 0.174437 0.632775
vt 0.355814 0.817667
vt 0.325563 0.867225
vt 0.174437 0.867225
vt 0.144186 0.817667
vt 0.475000 0.594750
vt 0.437200 0.632775
vt 0.437200 0.722775
vt 0.475000 0.684750
vt 0.325563 0.632775
vt 0.355814 0.682333
vt 0.174437 0.632775
vt 0.144186 0.682333
vt 0.355814 0.817667
vt 0.325563 0.867225
vt 0.437200 0.867225
vt 0.475000 0.905250
vt 0.475000 0.815250
vt 0.437200 0.777225
vt 0.355814 0.562679
vt 0.437321 0.644186
vt 0.474358 0.604392
vt 0.395608 0.525642
vt 0.395608 0.525642
vt 0.474358 0.604392
vt 0.437321 0.644186
vt 0.355814 0.562679
vt 0.395608 0.974358
vt 0.474358 0.895608
vt 0.355814 0.937321
vt 0.437321 0.855814
vt 0.395608 0.974358
vt 0.474358 0.895608
vt 0.437321 0.855814
vt 0.355814 0.937321
vt 0.025642 0.604392
vt 0.104392 0.525642
vt 0.062679 0.644186
vt 0.144186 0.562679
vt 0.062679 0.855814
vt 0.025642 0.895608
vt 0.104392 0.974358
vt 0.144186 0.937321
vt 0.025642 0.895608
vt 0.062679 0.855814
vt 0.144186 0.937321
vt 0.104392 0.974358
vt 0.144186 0.562679
vt 0.062679 0.644186
vt 0.025642 0.604392
vt 0.104392 0.525642
vt 0.898729 0.235419
vt 0.764722 0.101412
vt 0.764722 0.101412
vt 0.898729 0.235419
vt 0.851271 0.014862
vt 0.985278 0.148869
vt 0.898729 0.235419
vt 0.764722 0.101412
vt 0.865705 0.538594
vt 0.865705 0.961406
vt 0.830629 0.935589
vt 0.830629 0.564411
vt 0.865705 0.961406
vt 0.865705 0.538594
vt 0.830629 0.564411
vt 0.830629 0.935589
vt 0.634295 0.538594
vt 0.634295 0.961406
vt 0.669371 0.935589
vt 0.669371 0.564411
vt 0.634339 0.935589
vt 0.634339 0.564411
vt 0.656940 0.582970
vt 0.656940 0.917030
vt 0.634295 0.538594
vt 0.634295 0.961406
vt 0.669371 0.935589
vt 0.669371 0.564411
vt 0.865705 0.961406
vt 0.865705 0.538594
vt 0.830629 0.564411
vt 0.830629 0.935589
vt 0.669371 0.564411
vt 0.669371 0.935589
vt 0.634295 0.961406
vt 0.634295 0.538594
vt 0.669371 0.564411
vt 0.669371 0.935589
vt 0.830629 0.935589
vt 0.830629 0.564411
vt 0.634339 0.564411
vt 0.634339 0.935589
vt 0.656940 0.917030
vt 0.656940 0.582970
vt 0.634339 0.935589
vt 0.634339 0.564411
vt 0.656940 0.582970
vt 0.656940 0.917030
vt 0.865661 0.935589
vt 0.865661 0.564411
vt 0.843060 0.582970
vt 0.843060 0.917030
vt 0.865661 0.564411
vt 0.865661 0.935589
vt 0.843060 0.917030
vt 0.843060 0.582970
vt 0.865661 0.935589
vt 0.865661 0.564411
vt 0.843060 0.582970
vt 0.843060 0.917030
vt 0.865661 0.564411
vt 0.865661 0.935589
vt 0.843060 0.917030
vt 0.843060 0.582970
vt 0.634339 0.564411
vt 0.634339 0.935589
vt 0.656940 0.917030
vt 0.656940 0.582970
vt 0.115000 0.662250
vt 0.162250 0.615000
vt 0.675000 0.798750
vt 0.701250 0.825000
vt 0.798750 0.825000
vt 0.825000 0.798750
vt 0.825000 0.701250
vt 0.798750 0.675000
vt 0.701250 0.675000
vt 0.675000 0.701250
vt 0.385000 0.837750
vt 0.337750 0.885000
vt 0.337750 0.615000
vt 0.162250 0.885000
vt 0.385000 0.662250
vt 0.115000 0.837750
vt 0.625000 0.125000
vt 0.733612 0.233612
vt 0.625000 0.125000
vt 0.733612 0.016388
vt 0.733612 0.233612
vt 0.733612 0.016388
vt 0.625000 0.125000
vt 0.516388 0.233612
vt 0.625000 0.125000
vt 0.733612 0.016388
vt 0.625000 0.125000
vt 0.733612 0.016388
vt 0.516388 0.233612
vt 0.733612 0.233612
vt 0.625000 0.125000
vt 0.625000 0.125000
vt 0.516388 0.016388
vt 0.516388 0.016388
vt 0.516388 0.016388
vt 0.516388 0.016388
vt 0.516388 0.233612
vt 0.733612 0.233612
vt 0.516388 0.233612
vt 0.625000 0.125000
vt 0.385000 0.837750
vt 0.385000 0.662250
vt 0.825000 0.798750
vt 0.798750 0.825000
vt 0.701250 0.825000
vt 0.675000 0.798750
vt 0.675000 0.701250
vt 0.701250 0.675000
vt 0.798750 0.675000
vt 0.825000 0.701250
vt 0.115000 0.837750
vt 0.162250 0.885000
vt 0.115000 0.662250
vt 0.337750 0.885000
vt 0.337750 0.615000
vt 0.162250 0.615000
vt 0.625000 0.125000
vt 0.733612 0.233612
vt 0.625000 0.125000
vt 0.733612 0.016388
vt 0.733612 0.233612
vt 0.733612 0.016388
vt 0.625000 0.125000
vt 0.516388 0.233612
vt 0.625000 0.125000
vt 0.733612 0.016388
vt 0.625000 0.125000
vt 0.733612 0.016388
vt 0.516388 0.233612
vt 0.733612 0.233612
vt 0.625000 0.125000
vt 0.625000 0.125000
vt 0.516388 0.016388
vt 0.516388 0.016388
vt 0.516388 0.016388
vt 0.516388 0.016388
vt 0.516388 0.233612
vt 0.733612 0.233612
vt 0.516388 0.233612
vt 0.625000 0.125000
vt 0.250000 0.815250
vt 0.250000 0.815250
vt 0.062800 0.867225
vt 0.025000 0.905250
vt 0.475000 0.905250
vt 0.437200 0.867225
vt 0.025000 0.594750
vt 0.062800 0.632775
vt 0.062800 0.722775
vt 0.025000 0.684750
vt 0.437200 0.632775
vt 0.475000 0.594750
vt 0.062800 0.632775
vt 0.025000 0.594750
vt 0.250000 0.684750
vt 0.025000 0.594750
vt 0.062800 0.632775
vt 0.250000 0.684750
vt 0.437200 0.632775
vt 0.475000 0.594750
vt 0.250000 0.684750
vt 0.062800 0.867225
vt 0.025000 0.905250
vt 0.025000 0.815250
vt 0.062800 0.777225
vt 0.025000 0.905250
vt 0.062800 0.867225
vt 0.250000 0.815250
vt 0.437200 0.867225
vt 0.475000 0.905250
vn 1.0000 0.0000 0.0000
vn -1.0000 -0.0052 0.0052
vn 0.0000 0.0000 -1.0000
vn -0.5772 -0.5777 0.5772
vn -0.5772 0.5777 0.5772
vn -0.5772 -0.5777 -0.5772
vn -0.5772 0.5777 -0.5772
vn 0.5772 -0.5777 0.5772
vn 0.5772 0.5777 0.5772
vn 0.5772 -0.5777 -0.5772
vn 0.5772 0.5777 -0.5772
vn -0.4965 0.3663 0.7870
vn -1.0000 0.0000 0.0000
vn -1.0000 0.0052 0.0052
vn -1.0000 -0.0052 -0.0052
vn -1.0000 0.0052 -0.0052
vn -0.0052 -0.0052 -1.0000
vn 0.0052 -0.0052 -1.0000
vn 0.0052 0.0052 -1.0000
vn -0.0052 0.0052 -1.0000
vn -0.6475 0.6349 0.4215
vn 0.0000 0.0000 1.0000
vn -0.0052 -0.0052 1.0000
vn 0.0052 -0.0052 1.0000
vn -0.0052 0.0052 1.0000
vn 0.0052 0.0052 1.0000
vn 0.4965 -0.3663 0.7870
vn 1.0000 -0.0052 0.0052
vn 1.0000 0.0052 0.0052
vn 1.0000 -0.0052 -0.0052
vn 1.0000 0.0052 -0.0052
vn 0.0000 0.7971 0.6038
vn 0.0000 0.7971 -0.6038
vn 0.6038 0.7971 -0.0000
vn -0.6038 0.7971 -0.0000
vn 0.7870 -0.3663 0.4965
vn 0.7870 0.3663 0.4965
vn -0.6475 0.6349 -0.4215
vn 0.7870 -0.3663 -0.4965
vn 0.6475 -0.6349 -0.4215
vn -0.4965 -0.3663 0.7870
vn 0.7870 0.3663 -0.4965
vn -0.0000 -0.7971 0.6038
vn -0.0000 -0.7971 -0.6038
vn -0.6038 -0.7971 0.0000
vn 0.6038 -0.7971 0.0000
vn -0.7870 0.3663 -0.4965
vn -0.4215 -0.6349 -0.6475
vn -0.7870 -0.3663 -0.4965
vn -0.7870 0.3663 0.4965
vn 0.4965 0.3663 -0.7870
vn -0.7870 -0.3663 0.4965
vn 0.4965 -0.3663 -0.7870
vn 0.4215 0.6349 -0.6475
vn -0.4965 0.3663 -0.7870
vn 0.4965 0.3663 0.7870
vn -0.4965 -0.3663 -0.7870
vn 0.4215 -0.6349 -0.6475
vn 0.3787 -0.8445 0.3787
vn 0.4239 -0.8004 0.4239
vn 0.3787 0.8445 0.3787
vn 0.4239 0.8004 0.4239
vn 0.4239 0.8004 -0.4239
vn 0.3787 0.8445 -0.3787
vn 0.3787 -0.8445 -0.3787
vn 0.4239 -0.8004 -0.4239
vn -0.4239 -0.8004 0.4239
vn -0.3787 -0.8445 0.3787
vn -0.3787 -0.8445 -0.3787
vn -0.4239 -0.8004 -0.4239
vn -0.3787 0.8445 -0.3787
vn -0.4239 0.8004 -0.4239
vn -0.3787 0.8445 0.3787
vn -0.4239 0.8004 0.4239
vn -0.7071 0.0000 0.7071
vn -0.7071 0.0000 -0.7071
vn 0.7071 0.0000 -0.7071
vn 0.7071 0.0000 0.7071
vn -0.0013 0.0000 1.0000
vn -1.0000 0.0000 0.0012
vn -1.0000 0.0000 -0.0012
vn -0.5679 0.0000 0.8231
vn 0.0013 0.0000 -1.0000
vn -0.0013 0.0000 -1.0000
vn 0.0013 0.0000 1.0000
vn 1.0000 0.0000 -0.0013
vn 1.0000 0.0000 0.0013
vn -0.8231 0.0000 0.5679
vn 0.8231 0.0000 0.5679
vn -0.8231 0.0000 -0.5679
vn 0.8231 0.0000 -0.5679
vn 0.5679 0.0000 -0.8231
vn 0.5679 0.0000 0.8231
vn -0.5679 0.0000 -0.8231
vn 0.0000 -1.0000 0.0000
vn 0.3638 -0.8575 0.3638
vn 0.0000 -0.7625 0.6470
vn -0.3638 -0.8575 0.3638
vn -0.6470 -0.7625 0.0000
vn 0.3638 -0.8575 -0.3638
vn 0.6470 -0.7625 -0.0000
vn -0.3638 -0.8575 -0.3638
vn -0.0000 -0.7625 -0.6470
vn 0.0000 1.0000 0.0000
vn 0.3638 0.8575 -0.3638
vn 0.0000 0.7625 -0.6470
vn -0.3638 0.8575 -0.3638
vn -0.6470 0.7625 0.0000
vn 0.3638 0.8575 0.3638
vn 0.6470 0.7625 0.0000
vn -0.3638 0.8575 0.3638
vn 0.0000 0.7625 0.6470
vn -0.4215 -0.6349 0.6475
vn 0.4215 -0.6349 0.6475
vn -0.4215 0.6349 0.6475
vn 0.4215 0.6349 0.6475
vn -0.4215 0.6349 -0.6475
vn 0.6475 0.6349 0.4215
vn 0.6475 0.6349 -0.4215
vn 0.6475 -0.6349 0.4215
vn -0.6475 -0.6349 0.4215
vn -0.6475 -0.6349 -0.4215
usemtl Default_OBJ
s off
f 16/1/1 13/2/1 45/3/1 48/4/1
f 10/5/2 9/6/2 24/7/2 25/8/2
f 136/9/3 7/10/3 27/11/3 30/12/3
f 1/13/4 2/14/4 132/15/4
f 3/16/5 4/17/5 5/18/5
f 133/19/6 6/20/6 7/21/6
f 8/22/7 9/23/7 10/24/7
f 134/25/8 11/26/8 135/27/8
f 161/28/9 12/29/9 13/30/9
f 136/31/10 14/32/10 15/33/10
f 16/34/11 17/35/11 162/36/11
f 39/37/12 38/38/12 80/39/12 81/40/12
f 4/41/13 10/5/13 25/8/13 20/42/13
f 6/43/14 133/44/14 22/45/14 23/46/14
f 5/47/15 4/41/15 20/42/15 21/48/15
f 133/44/13 132/49/13 19/50/13 22/45/13
f 132/49/16 2/51/16 18/52/16 19/50/16
f 8/22/3 162/36/3 33/53/3 28/54/3
f 162/36/17 17/55/17 32/56/17 33/53/17
f 9/57/18 8/22/18 28/54/18 29/58/18
f 7/10/19 6/59/19 26/60/19 27/11/19
f 14/61/20 136/9/20 30/12/20 31/62/20
f 58/63/21 34/64/21 196/65/21 197/66/21
f 1/13/22 135/27/22 39/37/22 34/67/22
f 12/68/23 161/69/23 40/70/23 41/71/23
f 3/72/24 5/47/24 36/73/24 37/74/24
f 135/27/25 11/75/25 38/38/25 39/37/25
f 2/51/26 1/13/26 34/67/26 35/76/26
f 161/69/22 3/72/22 37/74/22 40/70/22
f 37/74/27 36/73/27 56/77/27 55/78/27
f 17/55/28 16/1/28 48/4/28 49/79/28
f 15/80/29 14/61/29 46/81/29 47/82/29
f 13/2/30 12/83/30 44/84/30 45/3/30
f 134/85/1 15/80/1 47/82/1 42/86/1
f 11/87/31 134/85/31 42/86/31 43/88/31
f 54/89/32 52/90/32 51/91/32
f 50/92/33 51/91/33 53/93/33
f 51/91/34 52/90/34 53/93/34
f 50/92/35 54/89/35 51/91/35
f 42/86/1 47/82/1 192/94/1
f 49/79/36 48/4/36 90/95/36 91/96/36
f 47/82/37 46/81/37 88/97/37 89/98/37
f 27/99/38 65/100/38 198/101/38 195/102/38
f 45/3/39 44/84/39 86/103/39 87/104/39
f 33/105/40 59/106/40 202/107/40 199/108/40
f 41/71/41 40/70/41 82/109/41 83/110/41
f 43/88/42 42/86/42 84/111/42 85/112/42
f 89/113/1 88/114/1 91/115/1 90/116/1 87/117/1 86/118/1 85/119/1 84/120/1
f 81/121/22 80/122/22 83/123/22 82/124/22 55/125/22 56/126/22 57/127/22 58/128/22
f 65/129/3 66/130/3 63/131/3 64/132/3 59/133/3 60/134/3 61/135/3 62/136/3
f 73/137/13 74/138/13 71/139/13 72/140/13 67/141/13 68/142/13 69/143/13 70/144/13
f 79/145/43 77/146/43 76/147/43
f 75/148/44 76/147/44 78/149/44
f 76/147/45 77/146/45 78/149/45
f 75/148/46 79/145/46 76/147/46
f 40/70/22 37/74/22 200/150/22
f 19/50/47 18/52/47 74/151/47 73/152/47
f 25/153/48 67/154/48 190/155/48 187/156/48
f 21/48/49 20/42/49 72/157/49 71/158/49
f 23/46/50 22/45/50 70/159/50 69/160/50
f 27/11/51 26/60/51 66/161/51 65/162/51
f 25/8/52 24/7/52 68/163/52 67/164/52
f 29/58/53 28/54/53 64/165/53 63/166/53
f 47/167/54 89/168/54 193/169/54 192/170/54
f 31/62/55 30/12/55 62/171/55 61/172/55
f 35/76/56 34/67/56 58/173/56 57/174/56
f 33/53/57 32/56/57 60/175/57 59/176/57
f 90/177/58 48/178/58 188/179/58 189/180/58
f 83/181/59 86/182/59 44/183/59 41/184/59
f 12/29/60 41/184/60 44/183/60
f 38/185/61 43/186/61 85/187/61 80/188/61
f 11/26/62 43/186/62 38/185/62
f 14/32/63 31/189/63 46/190/63
f 61/191/64 88/192/64 46/190/64 31/189/64
f 32/193/65 49/194/65 91/195/65 60/196/65
f 17/35/66 49/194/66 32/193/66
f 5/18/67 21/197/67 36/198/67
f 36/198/68 21/197/68 71/199/68 56/200/68
f 68/201/69 24/202/69 29/203/69 63/204/69
f 9/23/70 29/203/70 24/202/70
f 23/205/71 69/206/71 66/207/71 26/208/71
f 6/20/72 23/205/72 26/208/72
f 57/209/73 74/210/73 18/211/73 35/212/73
f 18/211/74 2/14/74 35/212/74
f 56/126/75 71/213/75 74/214/75 57/127/75
f 66/130/76 69/215/76 68/216/76 63/131/76
f 88/217/77 61/135/77 60/134/77 91/218/77
f 86/118/78 83/219/78 80/220/78 85/119/78
f 96/221/79 97/222/79 111/223/79 110/224/79
f 95/225/80 94/226/80 102/227/80 103/228/80
f 92/229/81 93/230/81 101/231/81 100/232/81
f 103/233/82 102/234/82 123/235/82 122/236/82
f 94/237/83 95/238/83 105/239/83 104/240/83
f 99/241/84 98/242/84 106/243/84 107/244/84
f 93/230/85 92/229/85 108/245/85 109/246/85
f 97/247/86 96/248/86 112/249/86 113/250/86
f 98/242/87 99/241/87 115/251/87 114/252/87
f 110/253/88 111/254/88 127/255/88 126/256/88
f 109/257/89 108/258/89 117/259/89 116/260/89
f 107/261/90 106/262/90 119/263/90 118/264/90
f 104/265/91 105/266/91 120/267/91 121/268/91
f 113/269/92 112/270/92 128/271/92 129/272/92
f 114/273/93 115/274/93 131/275/93 130/276/93
f 100/277/94 101/278/94 124/279/94 125/280/94
f 1/13/95 132/15/95 137/281/95 138/282/95
f 140/283/95 139/284/95 144/285/95 143/286/95 142/287/95 141/288/95 138/289/95 137/290/95
f 136/31/95 15/33/95 143/291/95 144/292/95
f 135/27/95 1/13/95 138/282/95 141/293/95
f 7/21/95 136/31/95 144/292/95 139/294/95
f 134/25/95 135/27/95 141/293/95 142/295/95
f 133/19/95 7/21/95 139/294/95 140/296/95
f 15/33/95 134/25/95 142/295/95 143/291/95
f 132/15/95 133/19/95 140/296/95 137/281/95
f 155/297/96 154/298/96 145/299/96
f 153/300/97 151/301/97 146/302/97
f 148/303/98 150/304/98 147/305/98
f 158/306/98 157/307/98 160/308/98
f 154/298/99 156/309/99 145/310/99
f 152/311/100 153/300/100 146/312/100
f 149/313/96 148/303/96 147/314/96
f 159/315/101 158/306/101 160/316/101
f 156/309/100 155/297/100 145/317/100
f 151/301/102 152/311/102 146/318/102
f 150/304/103 149/313/103 147/319/103
f 157/307/102 159/315/102 160/320/102
f 13/30/104 16/34/104 170/321/104 167/322/104
f 170/323/104 169/324/104 166/325/104 165/326/104 164/327/104 163/328/104 168/329/104 167/330/104
f 8/22/104 10/24/104 165/331/104 166/332/104
f 10/24/104 4/17/104 164/333/104 165/331/104
f 162/36/104 8/22/104 166/332/104 169/334/104
f 3/16/104 161/28/104 168/335/104 163/336/104
f 16/34/104 162/36/104 169/334/104 170/321/104
f 4/17/104 3/16/104 163/336/104 164/333/104
f 161/28/104 13/30/104 167/322/104 168/335/104
f 181/337/105 180/338/105 171/339/105
f 179/340/106 177/341/106 172/342/106
f 174/343/107 176/344/107 173/345/107
f 184/346/107 183/347/107 186/348/107
f 180/338/108 182/349/108 171/350/108
f 178/351/109 179/340/109 172/352/109
f 175/353/105 174/343/105 173/354/105
f 185/355/110 184/346/110 186/356/110
f 182/349/109 181/337/109 171/357/109
f 177/341/111 178/351/111 172/358/111
f 176/344/112 175/353/112 173/359/112
f 183/347/111 185/355/111 186/360/111
f 20/42/13 25/8/13 187/361/13
f 48/4/1 45/3/1 188/362/1
f 72/363/113 20/364/113 187/156/113 190/155/113
f 45/365/114 87/366/114 189/180/114 188/179/114
f 19/367/115 73/368/115 194/369/115 191/370/115
f 84/371/116 42/372/116 192/170/116 193/169/116
f 70/373/117 22/374/117 191/370/117 194/369/117
f 22/45/13 19/50/13 191/375/13
f 39/376/118 81/377/118 197/66/118 196/65/118
f 30/12/3 27/11/3 195/378/3
f 62/379/119 30/380/119 195/102/119 198/101/119
f 34/67/22 39/37/22 196/381/22
f 82/382/120 40/383/120 200/384/120 201/385/120
f 37/386/121 55/387/121 201/385/121 200/384/121
f 28/54/3 33/53/3 199/388/3
f 64/389/122 28/390/122 199/108/122 202/107/122
